<svg width="304" height="304" viewBox="0 0 304 304" fill="none" xmlns="http://www.w3.org/2000/svg">
<path d="M304 152C257.739 301.127 187.055 246.82 152 304C27.5841 256.302 29.5955 183.607 0 152C19.2514 152 -14.0794 85.913 152 0C195.388 43.9622 220.386 0 304 152Z" fill="#D9D9D9"/>
<path d="M55 126.192C55 94.6056 80.6056 69 112.192 69H121.762C192.034 69 249 125.966 249 196.238C249 218.198 231.198 236 209.238 236H164.808C104.163 236 55 186.837 55 126.192Z" fill="#00A693"/>
<path d="M154.119 151.545C154.119 156.915 153.15 161.555 151.211 165.466C149.272 169.377 146.612 172.393 143.232 174.514C139.851 176.635 135.99 177.696 131.648 177.696C127.306 177.696 123.445 176.635 120.064 174.514C116.683 172.393 114.023 169.377 112.085 165.466C110.146 161.555 109.176 156.915 109.176 151.545C109.176 146.176 110.146 141.536 112.085 137.625C114.023 133.714 116.683 130.698 120.064 128.577C123.445 126.455 127.306 125.395 131.648 125.395C135.99 125.395 139.851 126.455 143.232 128.577C146.612 130.698 149.272 133.714 151.211 137.625C153.15 141.536 154.119 146.176 154.119 151.545ZM148.153 151.545C148.153 147.137 147.416 143.417 145.941 140.384C144.483 137.352 142.502 135.056 140 133.499C137.514 131.941 134.73 131.162 131.648 131.162C128.565 131.162 125.773 131.941 123.271 133.499C120.785 135.056 118.804 137.352 117.33 140.384C115.871 143.417 115.142 147.137 115.142 151.545C115.142 155.954 115.871 159.674 117.33 162.707C118.804 165.739 120.785 168.035 123.271 169.592C125.773 171.15 128.565 171.929 131.648 171.929C134.73 171.929 137.514 171.15 140 169.592C142.502 168.035 144.483 165.739 145.941 162.707C147.416 159.674 148.153 155.954 148.153 151.545Z" fill="white" fill-opacity="0.9"/>
<path d="M154.119 151.545C154.119 156.915 153.15 161.555 151.211 165.466C149.272 169.377 146.612 172.393 143.232 174.514C139.851 176.635 135.99 177.696 131.648 177.696C127.306 177.696 123.445 176.635 120.064 174.514C116.683 172.393 114.023 169.377 112.085 165.466C110.146 161.555 109.176 156.915 109.176 151.545C109.176 146.176 110.146 141.536 112.085 137.625C114.023 133.714 116.683 130.698 120.064 128.577C123.445 126.455 127.306 125.395 131.648 125.395C135.99 125.395 139.851 126.455 143.232 128.577C146.612 130.698 149.272 133.714 151.211 137.625C153.15 141.536 154.119 146.176 154.119 151.545ZM148.153 151.545C148.153 147.137 147.416 143.417 145.941 140.384C144.483 137.352 142.502 135.056 140 133.499C137.514 131.941 134.73 131.162 131.648 131.162C128.565 131.162 125.773 131.941 123.271 133.499C120.785 135.056 118.804 137.352 117.33 140.384C115.871 143.417 115.142 147.137 115.142 151.545C115.142 155.954 115.871 159.674 117.33 162.707C118.804 165.739 120.785 168.035 123.271 169.592C125.773 171.15 128.565 171.929 131.648 171.929C134.73 171.929 137.514 171.15 140 169.592C142.502 168.035 144.483 165.739 145.941 162.707C147.416 159.674 148.153 155.954 148.153 151.545Z" fill="white" fill-opacity="0.1"/>
<path d="M164.485 177V126.091H195.011V131.56H170.65V148.761H192.724V154.23H170.65V177H164.485Z" fill="white" fill-opacity="0.9"/>
<path d="M164.485 177V126.091H195.011V131.56H170.65V148.761H192.724V154.23H170.65V177H164.485Z" fill="white" fill-opacity="0.1"/>
</svg>
